<svg xmlns="http://www.w3.org/2000/svg" viewBox="0 0 2800 1736"><filter id="b"><feGaussianBlur stdDeviation="12" /></filter><path fill="#d6d0cd" d="M0 0h2800v1728H0z"/><g filter="url(#b)" transform="translate(5.5 5.5) scale(10.9375)" fill-opacity=".5"><ellipse fill="#361502" cx="142" cy="53" rx="43" ry="35"/><ellipse fill="#ffe1cd" cx="134" cy="74" rx="30" ry="30"/><ellipse fill="#8a694b" rx="1" ry="1" transform="matrix(-7.29613 -9.49951 59.19013 -45.46117 76 134.6)"/><ellipse fill="#fff" cx="246" cy="113" rx="64" ry="231"/><ellipse cx="145" cy="31" rx="31" ry="12"/><ellipse fill="#f7fdff" rx="1" ry="1" transform="matrix(72.57806 -95.9654 35.42578 26.7923 39.2 64)"/><path d="M168 47l16 25-23 21zM35 133h35v4H35z"/><path fill="#0c0304" d="M105 38l-9 27 51-47z"/><ellipse fill="#0b0000" rx="1" ry="1" transform="matrix(23.19493 20.06034 -3.35687 3.88141 153.5 44.5)"/><path fill="#320a00" d="M96 142l-7-32-10 11z"/><path fill="#562a1b" d="M132.6 63.3L112 70.6l23 7.7 1.2-13.6z"/><ellipse fill="#f1f5f7" rx="1" ry="1" transform="rotate(165.1 84.7 72.8) scale(27.22451 36.27392)"/><path fill="#d19983" d="M127.4 109.4h27L150 173l-22.6-62.3z"/><path fill="#faffff" d="M190.3-5l-3 27.9-75.6-8 3-27.8z"/><ellipse fill="#f6eae2" rx="1" ry="1" transform="rotate(33.9 -126 214.6) scale(53.22049 9.32593)"/><path fill="#a0a296" d="M24.7 136.3l75 1.4-.4 26-75-1.4z"/><path fill="#f4f8f9" d="M40.5 130.3L100.7 53l-24.3 76.4-13-.5z"/><ellipse fill="#ecedee" rx="1" ry="1" transform="rotate(-134.2 58.1 -9.3) scale(10.76976 22.30122)"/><path fill="#e9d1c2" d="M113.5 46.6l25.4-4.9L166.6 63l-6.8 22.4z"/><path fill="#e3bba4" d="M90.7 60.2l24.8-3 5.8 46.6-24.8 3z"/><ellipse fill="#eff5f8" rx="1" ry="1" transform="rotate(40 1 3) scale(26.47817 69.99303)"/><path fill="#f2e2de" d="M141 72l-17 11 41 43z"/><path fill="#a38d79" d="M175.6 71.4L158 101.6l29.7-28.2-4.7-38.8z"/><ellipse fill="#482e30" rx="1" ry="1" transform="matrix(7.34528 2.17577 -.73446 2.47948 149.4 82)"/><path fill="#363835" d="M65.4 128.5l15.3 8.3-44.2-5.7 22 11.6z"/><ellipse fill="#2d1e1c" cx="153" cy="36" rx="29" ry="7"/><path fill="#58280f" d="M82.8 114.8l8.6-2.7 5.8 19.1-8.6 2.7z"/><path fill="#6e4931" d="M144.8 149.2l24.4 23.8h3.5l-30.4-17.6z"/><path fill="#1c1313" d="M150.2 33l-47 19.9 1.1-9.3 9.5-7.6z"/><path fill="#c59b7b" d="M134.5 73.3l-36.7 43.4-55.2 35.4 73.7-36z"/><path fill="#56493e" d="M43.2 153l-1.2 1.5-15.2-11.4 1.2-1.6z"/><path fill="#080106" d="M175.2 73l-32.3-41 23.8 19.6 1.3 31.9z"/><path fill="#a37050" d="M110 56l-15 7-1 17z"/><path fill="#907556" d="M172.4 29.5l-24.3-9.3 1.5-3.7 24.3 9.3z"/><ellipse fill="#eaedee" cx="205" cy="13" rx="38" ry="28"/><ellipse fill="#eef0f2" cx="55" cy="123" rx="11" ry="11"/><path fill="#e9eaeb" d="M271 142L170 81l-21 88z"/><path fill="#ce8a74" d="M138 115h19v14h-19z"/><path fill="#d7d7d3" d="M41 150l18 23-12-31z"/><path fill="#c3ab8a" d="M177.7 60.3l33-55.1-29.3 49-22.7-14.9z"/><ellipse fill="#dedbdc" rx="1" ry="1" transform="matrix(9.10279 23.34744 -22.99308 8.96463 114.8 151)"/><path fill="#e3c8b6" d="M104.8 133.3L122 49.8l-14.2 10-14.5 57.9z"/><path d="M62 139l4-9h6z"/><path fill="#e8d6ce" d="M130.2 95.2l9.2-26.2-18.8-13.8 38.5 5.3z"/><path fill="#bb8560" d="M138.1 40.3l6.5 9.9 19 12.4 1.1-6z"/><path fill="#160b0d" d="M168.2 33.4l1.6-1.3 16 20.5-1.6 1.3z"/><path fill="#e8e8e8" d="M91-7l33.2-9-8 50-48.5 4.2z"/><path fill="#5f3e35" d="M137.8 69l-12.6-7.7L136.6 80l-18.2-12.2z"/><ellipse fill="#472f24" rx="1" ry="1" transform="rotate(-137.7 66.7 43.8) scale(9.38455 3.50503)"/><path fill="#000002" d="M58.4 136.8l11.5-8 1.7 2.4-11.5 8z"/><path fill="#b3b0a5" d="M52.8 160.6l41.7 10.3-8.9-44.6-18.3 9.6z"/><path d="M33 134h22v2H33z"/><path fill="#ebedee" d="M-3.8 173l50.3-49 2.8-7.2-52.7 45z"/><path fill="#eaebec" d="M22 110l72 1V22z"/><path fill="#94695b" d="M160 73l-16 5 2-7z"/><path fill="#63604d" d="M65.5 131.7l-8.3 12-6.8.8 6.9 9.8z"/><path fill="#4a0000" d="M117 106l7-3-3 5z"/><ellipse fill="#eaeced" rx="1" ry="1" transform="rotate(-62.7 171.6 -139.2) scale(85.48371 32.66788)"/><ellipse fill="#110b0c" rx="1" ry="1" transform="rotate(-98.8 110.4 -39.5) scale(15.69686 2.18545)"/><path fill="#d5cece" d="M202.6 173L132 133.8l33.7-17.6-20.8 6.7z"/><path fill="#f0e9e9" d="M153 113l-13-4 21-29z"/><path fill="#996947" d="M103.7 123.6l-25 2.5-2.2-6 16 20.6z"/><path fill="#e3cdc7" d="M158.7 85.6l-16.4 18.9-23.3.9 29-22z"/><path fill="#755a4b" d="M173 73l1 18 6-21z"/><path fill="#844f31" d="M137 139h4v6h-4z"/><path fill="#775944" d="M125 35.7l2.9 2.8-23 23.8-2.8-2.8z"/><path fill="#eceeef" d="M75 131l-19-16 20-10z"/><path fill="#e2c8b4" d="M148 56l-41 3 36-20z"/><path fill="#191521" d="M154.4 84.4l-7.5-2.9.7-1.9 7.5 2.9z"/><path fill="#debfad" d="M97.9 98.5l39-12-44.3-25.1 33.4 44.3z"/><path fill="#66594a" d="M71 143h2v15h-2z"/><path fill="#282024" d="M112 37l45 4-13-23z"/><path fill="#e7dfdd" d="M114 113h21v45h-21z"/><ellipse fill="#6c5b57" cx="162" cy="90" rx="2" ry="7"/><path fill="#725132" d="M160.6 45.8l-9.6-8.2L181.9 52 161 35.7z"/><path fill="#724f3e" d="M126.5 74l6.4 5.8-19.5-7.7 9-5z"/><path fill="#b9b6af" d="M78 136l19.5 3.8 1.3 28.1 31.7 5.1z"/><path fill="#a34e23" d="M123 96l7-3-8-3z"/><path fill="#c66e3e" d="M98 78.6l-6-1.4 2-7.8 5.8 1.4z"/><path fill="#6c4b44" d="M136.3 68.3l-16.8-8.5.5 1 6.6-1z"/><path fill="#e4e9f1" d="M62 150l-19 23h24z"/><path fill="#e8d8d2" d="M142.8 76.8l4 16 5.1 6.4-27-7.3z"/><path fill="#e9e0de" d="M162.3 63L143 65.2l1.5 3.6 18.6 5.3z"/><ellipse fill="#1b1617" cx="109" cy="44" rx="8" ry="6"/><ellipse fill="#1d1616" rx="1" ry="1" transform="matrix(26.90128 19.08466 -1.45419 2.0498 152.3 42.6)"/><path fill="#cecac4" d="M168 84l-3 19 13-19z"/><path fill="#584c42" d="M126.2 29.2l25.5-10 7.2-.6-29.6.7z"/><path fill="#e7cca3" d="M180.3 62.3l-9.5-14 .9-.6 9.5 14z"/><path fill="#e0dcdc" d="M176.8 116.2l-35.2 20.3L180 152l-40.6-1.8z"/><path fill="#a8a18f" d="M69.3 155l9.1-38.2 7 23.2-34.9-2.2z"/><path fill="#ebeded" d="M251 137.4l-72.7-96.6 84.2 46.1 4 24.4z"/><path fill="#62493d" d="M185 71l-11-13v15z"/><ellipse fill="#e3e3e4" rx="1" ry="1" transform="matrix(.37105 -107.12459 43.6386 .15115 0 57.2)"/><path fill="#4b2c26" d="M92.1 144l-2.9-29.3-1.3 4-.2 9.8z"/><path fill="#e8e9e9" d="M103.7 44.4l-110.1 59 103.7 8.5-6.6-37.8z"/><ellipse fill="#d2ab84" rx="1" ry="1" transform="matrix(3.05337 -4.63068 7.2761 4.7977 99.7 121.2)"/><path fill="#e3d2c6" d="M116 64l14 6-14.6-14.8-26.7 45.7z"/><path fill="#ce846c" d="M158.8 118l-5.4.7-23-12.4 21.2 15.2z"/><path fill="#d0ccc3" d="M66.6 162.3l52.1-45.3.7.7L67.3 163z"/></g></svg>