<?xml version="1.0" encoding="UTF-8"?>
<svg width="219px" height="48px" viewBox="0 0 219 48" version="1.1" xmlns="http://www.w3.org/2000/svg" xmlns:xlink="http://www.w3.org/1999/xlink">
    <g id="Instagram" stroke="none" fill="#ffffff">
        <path d="M1,39.0674888 L1,4.6 L9.49380805,4.6 L9.49380805,39.0674888 L1,39.0674888 Z M13.7167183,39.0674888 L13.7167183,14.3858744 L21.250774,14.3858744 L21.250774,17.7603139 L21.3947368,17.7603139 C23.2182663,15.1089686 25.5696594,13.6627803 28.9767802,13.6627803 C34.3513932,13.6627803 37.5185759,17.5192825 37.5185759,23.0147982 L37.5185759,39.0674888 L29.6965944,39.0674888 L29.6965944,24.6056054 C29.6965944,22.0024664 28.4009288,20.2188341 25.8575851,20.2188341 C23.2662539,20.2188341 21.5386997,22.3881166 21.5386997,25.4251121 L21.5386997,39.0674888 L13.7167183,39.0674888 Z M51.5309598,39.8387892 C44.3328173,39.8387892 39.8219814,36.5125561 39.5820433,31.0652466 L46.9721362,31.0652466 C47.2600619,33.5237668 48.8916409,34.7289238 51.4829721,34.7289238 C53.8343653,34.7289238 55.3219814,33.8612108 55.3219814,32.2704036 C55.3219814,30.0529148 52.3467492,29.8118834 49.0835913,29.2334081 C44.8126935,28.5103139 40.25387,27.3533632 40.25387,21.5686099 C40.25387,16.3623318 45.0526316,13.6627803 50.8591331,13.6627803 C57.8173375,13.6627803 61.5603715,16.6997758 61.9442724,21.5686099 L54.74613,21.5686099 C54.4582043,19.3511211 52.9705882,18.6762332 50.8111455,18.6762332 C48.8916409,18.6762332 47.4040248,19.3993274 47.4040248,20.9419283 C47.4040248,22.6773543 50.1873065,22.9183857 53.3065015,23.496861 C57.625387,24.2199552 62.7120743,25.3286996 62.7120743,31.643722 C62.7120743,37.0428251 57.9613003,39.8387892 51.5309598,39.8387892 Z M74.996904,39.3567265 C70.4380805,39.3567265 67.1749226,37.8623318 67.1749226,32.5596413 L67.1749226,19.3029148 L63.9117647,19.3029148 L63.9117647,14.3858744 L67.1749226,14.3858744 L67.1749226,6.5764574 L74.8049536,6.5764574 L74.8049536,14.3858744 L79.2678019,14.3858744 L79.2678019,19.3029148 L74.8049536,19.3029148 L74.8049536,30.8724215 C74.8049536,32.8006726 75.8606811,33.2827354 77.5402477,33.2827354 C78.2120743,33.2827354 78.9798762,33.2345291 79.2678019,33.2345291 L79.2678019,38.9710762 C78.5959752,39.1639013 77.1083591,39.3567265 74.996904,39.3567265 Z M89.3452012,39.6941704 C84.4504644,39.6941704 80.9473684,37.0428251 80.9473684,32.173991 C80.9473684,26.7266816 85.2662539,25.0876682 90.3529412,24.4127803 C94.9597523,23.8343049 96.5913313,23.3522422 96.5913313,21.6650224 C96.5913313,20.0742152 95.5835913,19.0136771 93.2321981,19.0136771 C90.7368421,19.0136771 89.4891641,20.1224215 89.249226,22.1952915 L82.0510836,22.1952915 C82.2430341,17.6156951 85.74613,13.7109865 93.1842105,13.7109865 C96.879257,13.7109865 99.374613,14.3858744 101.150155,15.7356502 C103.26161,17.2782511 104.26935,19.688565 104.26935,22.7737668 L104.26935,35.2109865 C104.26935,37.1874439 104.4613,38.2961883 105.133127,38.7300448 L105.133127,39.0674888 L97.5510836,39.0674888 C97.1671827,38.5372197 96.9272446,37.5730942 96.7352941,36.3197309 L96.6393189,36.3197309 C95.1996904,38.3926009 93.0402477,39.6941704 89.3452012,39.6941704 Z M91.8405573,34.6807175 C94.7678019,34.6807175 96.7832817,32.8970852 96.7832817,30.2457399 L96.7832817,27.305157 C95.7755418,27.835426 94.3359133,28.2210762 92.752322,28.6067265 C89.7291022,29.2816143 88.4814241,30.0529148 88.4814241,31.9329596 C88.4814241,33.909417 89.9210526,34.6807175 91.8405573,34.6807175 Z M119.481424,47.6 C112.71517,47.6 108.252322,44.8040359 107.48452,39.6459641 L115.066563,39.6459641 C115.498452,40.9475336 116.794118,42.056278 119.385449,42.056278 C122.696594,42.056278 124.088235,40.320852 124.088235,37.3320628 L124.088235,34.8735426 L123.896285,34.8735426 C122.456656,36.5125561 120.585139,37.717713 117.609907,37.717713 C112.091331,37.717713 106.956656,33.5719731 106.956656,26.0035874 C106.956656,18.7726457 111.179567,13.6627803 117.273994,13.6627803 C120.537152,13.6627803 122.744582,14.9643498 124.184211,17.0372197 L124.280186,17.0372197 L124.280186,14.3858744 L131.766254,14.3858744 L131.766254,36.6571749 C131.766254,40.3690583 130.470588,43.0686099 128.503096,44.8522422 C126.343653,46.7804933 123.128483,47.6 119.481424,47.6 Z M119.433437,31.8847534 C122.840557,31.8847534 124.424149,29.1852018 124.424149,25.7143498 C124.424149,22.3881166 122.696594,19.5921525 119.433437,19.5921525 C116.506192,19.5921525 114.586687,22.0024664 114.586687,25.7625561 C114.586687,29.4744395 116.506192,31.8847534 119.433437,31.8847534 Z M135.509288,39.0674888 L135.509288,14.3858744 L142.995356,14.3858744 L142.995356,18.2423767 L143.139319,18.2423767 C144.866873,15.3017937 146.882353,14.0002242 149.857585,14.0002242 C150.577399,14.0002242 151.057276,14.0484305 151.393189,14.1930493 L151.393189,20.9419283 L151.201238,20.9419283 C146.402477,20.2670404 143.331269,22.629148 143.331269,27.9800448 L143.331269,39.0674888 L135.509288,39.0674888 Z M161.134675,39.6941704 C156.239938,39.6941704 152.736842,37.0428251 152.736842,32.173991 C152.736842,26.7266816 157.055728,25.0876682 162.142415,24.4127803 C166.749226,23.8343049 168.380805,23.3522422 168.380805,21.6650224 C168.380805,20.0742152 167.373065,19.0136771 165.021672,19.0136771 C162.526316,19.0136771 161.278638,20.1224215 161.0387,22.1952915 L153.840557,22.1952915 C154.032508,17.6156951 157.535604,13.7109865 164.973684,13.7109865 C168.668731,13.7109865 171.164087,14.3858744 172.939628,15.7356502 C175.051084,17.2782511 176.058824,19.688565 176.058824,22.7737668 L176.058824,35.2109865 C176.058824,37.1874439 176.250774,38.2961883 176.922601,38.7300448 L176.922601,39.0674888 L169.340557,39.0674888 C168.956656,38.5372197 168.716718,37.5730942 168.524768,36.3197309 L168.428793,36.3197309 C166.989164,38.3926009 164.829721,39.6941704 161.134675,39.6941704 Z M163.630031,34.6807175 C166.557276,34.6807175 168.572755,32.8970852 168.572755,30.2457399 L168.572755,27.305157 C167.565015,27.835426 166.125387,28.2210762 164.541796,28.6067265 C161.518576,29.2816143 160.270898,30.0529148 160.270898,31.9329596 C160.270898,33.909417 161.710526,34.6807175 163.630031,34.6807175 Z M179.849845,39.0674888 L179.849845,14.3858744 L187.335913,14.3858744 L187.335913,17.9049327 L187.479876,17.9049327 C189.01548,15.35 191.366873,13.6627803 194.917957,13.6627803 C198.133127,13.6627803 200.580495,15.35 201.828173,18.0013453 L201.924149,18.0013453 C203.843653,15.0125561 206.482972,13.6627803 209.650155,13.6627803 C215.216718,13.6627803 218,17.4710762 218,23.0147982 L218,39.0674888 L210.178019,39.0674888 L210.178019,24.4127803 C210.178019,21.761435 209.074303,20.2188341 206.72291,20.2188341 C204.227554,20.2188341 202.835913,22.291704 202.835913,25.232287 L202.835913,39.0674888 L195.013932,39.0674888 L195.013932,24.4127803 C195.013932,21.761435 193.910217,20.2188341 191.558824,20.2188341 C189.111455,20.2188341 187.671827,22.291704 187.671827,25.232287 L187.671827,39.0674888 L179.849845,39.0674888 Z"></path>
        <line x1="0%" y1="46" x2="100%" y2="46" class="underline" />
    </g>
</svg>
