<?xml version="1.0" encoding="UTF-8"?>
<svg width="159px" height="48px" viewBox="0 0 159 48" version="1.1" xmlns="http://www.w3.org/2000/svg" xmlns:xlink="http://www.w3.org/1999/xlink">
    <g id="Twitter" stroke="none" fill="#ffffff">
        <path d="M10.984,38.62 L10.984,11.5 L1,11.5 L1,4.3 L29.56,4.3 L29.56,11.5 L19.48,11.5 L19.48,38.62 L10.984,38.62 Z M37.816,39.02 L30.28,14.444 L38.248,14.444 L40.936,24.62 C41.464,26.588 42.04,29.372 42.04,29.372 L42.136,29.372 C42.136,29.372 42.712,26.54 43.24,24.476 L45.832,14.444 L52.456,14.444 L55.144,24.476 C55.672,26.588 56.296,29.42 56.296,29.42 L56.392,29.42 C56.392,29.42 57.016,26.588 57.544,24.62 L60.28,14.444 L68.008,14.444 L60.472,39.02 L53.128,39.02 L50.248,27.884 C49.72,25.964 49.192,23.468 49.192,23.468 L49.096,23.468 C49.096,23.468 48.52,25.964 47.992,27.884 L45.064,39.02 L37.816,39.02 Z M69.832,39.02 L69.832,14.444 L77.656,14.444 L77.656,39.02 L69.832,39.02 Z M69.832,11.036 L69.832,4.7 L77.656,4.7 L77.656,11.036 L69.832,11.036 Z M91.144,39.308 C86.584,39.308 83.32,37.82 83.32,32.54 L83.32,19.34 L80.056,19.34 L80.056,14.444 L83.32,14.444 L83.32,6.668 L90.952,6.668 L90.952,14.444 L95.416,14.444 L95.416,19.34 L90.952,19.34 L90.952,30.86 C90.952,32.78 92.008,33.26 93.688,33.26 C94.36,33.26 95.128,33.212 95.416,33.212 L95.416,38.924 C94.744,39.116 93.256,39.308 91.144,39.308 Z M107.992,39.308 C103.432,39.308 100.168,37.82 100.168,32.54 L100.168,19.34 L96.904,19.34 L96.904,14.444 L100.168,14.444 L100.168,6.668 L107.8,6.668 L107.8,14.444 L112.264,14.444 L112.264,19.34 L107.8,19.34 L107.8,30.86 C107.8,32.78 108.856,33.26 110.536,33.26 C111.208,33.26 111.976,33.212 112.264,33.212 L112.264,38.924 C111.592,39.116 110.104,39.308 107.992,39.308 Z M127.096,39.74 C118.984,39.74 113.992,34.124 113.992,26.684 C113.992,19.34 119.128,13.724 126.616,13.724 C130.12,13.724 132.904,14.876 135.016,16.796 C137.944,19.484 139.384,23.756 139.336,28.748 L121.672,28.748 C122.152,32.06 123.976,34.124 127.192,34.124 C129.256,34.124 130.6,33.212 131.272,31.676 L138.904,31.676 C138.376,33.884 136.936,35.996 134.776,37.484 C132.712,38.924 130.216,39.74 127.096,39.74 Z M121.72,24.092 L131.416,24.092 C131.128,21.164 129.304,19.292 126.76,19.292 C123.784,19.292 122.248,21.164 121.72,24.092 Z M141.976,39.02 L141.976,14.444 L149.464,14.444 L149.464,18.284 L149.608,18.284 C151.336,15.356 153.352,14.06 156.328,14.06 C157.048,14.06 157.528,14.108 157.864,14.252 L157.864,20.972 L157.672,20.972 C152.872,20.3 149.8,22.652 149.8,27.98 L149.8,39.02 L141.976,39.02 Z"></path>
    </g>
</svg>
