<?xml version="1.0" encoding="UTF-8"?>
<svg width="261px" height="48px" viewBox="0 0 261 48" version="1.1" xmlns="http://www.w3.org/2000/svg" xmlns:xlink="http://www.w3.org/1999/xlink">
    <g id="Soundcloud" stroke="none" fill="#ffffff">
        <path d="M15.2997602,39.8 C6.18705036,39.8 0.191846523,35.7409396 0,28.1060403 L8.53717026,28.1060403 C8.92086331,31.5852349 11.17506,33.0348993 15.2517986,33.0348993 C18.0335731,33.0348993 20.7673861,32.0201342 20.7673861,29.4107383 C20.7673861,26.6563758 17.9856115,26.0765101 13.2853717,24.9167785 C7.3381295,23.5154362 1.05515588,21.6791946 1.05515588,14.4308725 C1.05515588,7.03758389 7.00239808,3.8 14.676259,3.8 C22.1103118,3.8 27.8657074,7.18255034 28.2014388,14.4308725 L19.9040767,14.4308725 C19.5683453,11.7731544 17.5539568,10.2751678 14.3884892,10.2751678 C11.4148681,10.2751678 9.44844125,11.5798658 9.44844125,13.5127517 C9.44844125,15.9288591 12.0863309,16.5087248 17.2182254,17.6684564 C23.5971223,19.166443 29.352518,21.147651 29.352518,28.5409396 C29.352518,35.7892617 23.2134293,39.8 15.2997602,39.8 Z M44.3165468,34.1463087 C47.7218225,34.1463087 49.5443645,31.1503356 49.5443645,26.6563758 C49.5443645,22.1624161 47.7218225,19.1181208 44.3165468,19.1181208 C40.911271,19.1181208 39.1366906,22.1624161 39.1366906,26.6563758 C39.1366906,31.1503356 40.911271,34.1463087 44.3165468,34.1463087 Z M44.3645084,39.7516779 C36.498801,39.7516779 31.2230216,34.0979866 31.2230216,26.6563758 C31.2230216,19.2147651 36.498801,13.5610738 44.3645084,13.5610738 C52.2781775,13.5610738 57.4580336,19.2147651 57.4580336,26.6563758 C57.4580336,34.0979866 52.2781775,39.7516779 44.3645084,39.7516779 Z M68.5371703,39.7033557 C62.8776978,39.7033557 59.9040767,35.9825503 59.9040767,30.4738255 L59.9040767,14.2375839 L67.6738609,14.2375839 L67.6738609,28.8308725 C67.6738609,31.5369128 68.8729017,33.0348993 71.3669065,33.0348993 C74.0527578,33.0348993 75.6834532,31.0053691 75.6834532,28.0577181 L75.6834532,14.2375839 L83.501199,14.2375839 L83.501199,38.9785235 L76.0191847,38.9785235 L76.0191847,35.9342282 L75.8752998,35.9342282 C74.1007194,38.3503356 71.942446,39.7033557 68.5371703,39.7033557 Z M87.2422062,38.9785235 L87.2422062,14.2375839 L94.7721823,14.2375839 L94.7721823,17.6201342 L94.9160671,17.6201342 C96.7386091,14.9624161 99.088729,13.5127517 102.494005,13.5127517 C107.865707,13.5127517 111.031175,17.3785235 111.031175,22.8872483 L111.031175,38.9785235 L103.213429,38.9785235 L103.213429,24.4818792 C103.213429,21.8724832 101.918465,20.0845638 99.3764988,20.0845638 C96.7865707,20.0845638 95.059952,22.2590604 95.059952,25.3033557 L95.059952,38.9785235 L87.2422062,38.9785235 Z M124.220624,39.7516779 C117.93765,39.7516779 113.477218,34.8711409 113.477218,26.6080537 C113.477218,18.8765101 117.889688,13.5127517 124.220624,13.5127517 C127.673861,13.5127517 129.640288,14.9624161 131.079137,17.0402685 L131.223022,17.0402685 L131.223022,4.42818792 L139.040767,4.42818792 L139.040767,38.9785235 L131.558753,38.9785235 L131.558753,35.6442953 L131.46283,35.6442953 C129.976019,38.2053691 127.434053,39.7516779 124.220624,39.7516779 Z M126.235012,33.5181208 C129.496403,33.5181208 131.414868,30.6671141 131.414868,26.6080537 C131.414868,22.452349 129.736211,19.4563758 126.330935,19.4563758 C123.213429,19.4563758 121.390887,22.3557047 121.390887,26.5114094 C121.390887,30.8120805 123.213429,33.5181208 126.235012,33.5181208 Z M154.724221,39.7516779 C146.810552,39.7516779 141.678657,34.0979866 141.678657,26.6563758 C141.678657,19.2147651 146.76259,13.5610738 154.532374,13.5610738 C161.199041,13.5610738 165.467626,17.4751678 166.18705,23.0322148 L158.657074,23.0322148 C158.177458,20.809396 156.834532,19.3597315 154.628297,19.3597315 C151.270983,19.3597315 149.592326,22.1624161 149.592326,26.6563758 C149.592326,31.0536913 151.270983,33.8563758 154.628297,33.8563758 C157.074341,33.8563758 158.561151,32.4067114 158.896882,29.6040268 L166.378897,29.6040268 C166.18705,35.3060403 161.678657,39.7516779 154.724221,39.7516779 Z M168.920863,38.9785235 L168.920863,4.42818792 L176.834532,4.42818792 L176.834532,38.9785235 L168.920863,38.9785235 Z M192.613909,34.1463087 C196.019185,34.1463087 197.841727,31.1503356 197.841727,26.6563758 C197.841727,22.1624161 196.019185,19.1181208 192.613909,19.1181208 C189.208633,19.1181208 187.434053,22.1624161 187.434053,26.6563758 C187.434053,31.1503356 189.208633,34.1463087 192.613909,34.1463087 Z M192.661871,39.7516779 C184.796163,39.7516779 179.520384,34.0979866 179.520384,26.6563758 C179.520384,19.2147651 184.796163,13.5610738 192.661871,13.5610738 C200.57554,13.5610738 205.755396,19.2147651 205.755396,26.6563758 C205.755396,34.0979866 200.57554,39.7516779 192.661871,39.7516779 Z M216.834532,39.7033557 C211.17506,39.7033557 208.201439,35.9825503 208.201439,30.4738255 L208.201439,14.2375839 L215.971223,14.2375839 L215.971223,28.8308725 C215.971223,31.5369128 217.170264,33.0348993 219.664269,33.0348993 C222.35012,33.0348993 223.980815,31.0053691 223.980815,28.0577181 L223.980815,14.2375839 L231.798561,14.2375839 L231.798561,38.9785235 L224.316547,38.9785235 L224.316547,35.9342282 L224.172662,35.9342282 C222.398082,38.3503356 220.239808,39.7033557 216.834532,39.7033557 Z M245.179856,39.7516779 C238.896882,39.7516779 234.436451,34.8711409 234.436451,26.6080537 C234.436451,18.8765101 238.848921,13.5127517 245.179856,13.5127517 C248.633094,13.5127517 250.59952,14.9624161 252.038369,17.0402685 L252.182254,17.0402685 L252.182254,4.42818792 L260,4.42818792 L260,38.9785235 L252.517986,38.9785235 L252.517986,35.6442953 L252.422062,35.6442953 C250.935252,38.2053691 248.393285,39.7516779 245.179856,39.7516779 Z M247.194245,33.5181208 C250.455635,33.5181208 252.374101,30.6671141 252.374101,26.6080537 C252.374101,22.452349 250.695444,19.4563758 247.290168,19.4563758 C244.172662,19.4563758 242.35012,22.3557047 242.35012,26.5114094 C242.35012,30.8120805 244.172662,33.5181208 247.194245,33.5181208 Z"></path>
    </g>
</svg>
