<?xml version="1.0" encoding="UTF-8"?>
<svg width="662px" height="535px" viewBox="0 0 662 535" version="1.1" xmlns="http://www.w3.org/2000/svg" xmlns:xlink="http://www.w3.org/1999/xlink">
    <!-- Generator: Sketch 52.3 (67297) - http://www.bohemiancoding.com/sketch -->
    <title>St one</title>
    <desc>Created with Sketch.</desc>
    <g id="Collection" stroke="none" stroke-width="1" fill="none" fill-rule="evenodd">
        <g id="Desktop-Copy" transform="translate(-62.000000, -58.000000)" fill="#FFFFFF">
            <path d="M189.6,356.8 C113.6,356.8 63.6,323.2 62,260 L133.2,260 C136.4,288.8 155.2,300.8 189.2,300.8 C212.4,300.8 235.2,292.4 235.2,270.8 C235.2,248 212,243.2 172.8,233.6 C123.2,222 70.8,206.8 70.8,146.8 C70.8,85.6 120.4,58.8 184.4,58.8 C246.4,58.8 294.4,86.8 297.2,146.8 L228,146.8 C225.2,124.8 208.4,112.4 182,112.4 C157.2,112.4 140.8,123.2 140.8,139.2 C140.8,159.2 162.8,164 205.6,173.6 C258.8,186 306.8,202.4 306.8,263.6 C306.8,323.6 255.6,356.8 189.6,356.8 Z M404,352.4 C366,352.4 338.8,340 338.8,296 L338.8,186 L311.6,186 L311.6,145.2 L338.8,145.2 L338.8,80.4 L402.4,80.4 L402.4,145.2 L439.6,145.2 L439.6,186 L402.4,186 L402.4,282 C402.4,298 411.2,302 425.2,302 C430.8,302 437.2,301.6 439.6,301.6 L439.6,349.2 C434,350.8 421.6,352.4 404,352.4 Z M171.6,546 C200,546 215.2,521.2 215.2,484 C215.2,446.8 200,421.6 171.6,421.6 C143.2,421.6 128.4,446.8 128.4,484 C128.4,521.2 143.2,546 171.6,546 Z M172,592.4 C106.4,592.4 62.4,545.6 62.4,484 C62.4,422.4 106.4,375.6 172,375.6 C238,375.6 281.2,422.4 281.2,484 C281.2,545.6 238,592.4 172,592.4 Z M298.4,586 L298.4,381.2 L361.2,381.2 L361.2,409.2 L362.4,409.2 C377.6,387.2 397.2,375.2 425.6,375.2 C470.4,375.2 496.8,407.2 496.8,452.8 L496.8,586 L431.6,586 L431.6,466 C431.6,444.4 420.8,429.6 399.6,429.6 C378,429.6 363.6,447.6 363.6,472.8 L363.6,586 L298.4,586 Z M621.6,592 C554,592 512.4,545.2 512.4,483.2 C512.4,422 555.2,375.2 617.6,375.2 C646.8,375.2 670,384.8 687.6,400.8 C712,423.2 724,458.8 723.6,500.4 L576.4,500.4 C580.4,528 595.6,545.2 622.4,545.2 C639.6,545.2 650.8,537.6 656.4,524.8 L720,524.8 C715.6,543.2 703.6,560.8 685.6,573.2 C668.4,585.2 647.6,592 621.6,592 Z M576.8,461.6 L657.6,461.6 C655.2,437.2 640,421.6 618.8,421.6 C594,421.6 581.2,437.2 576.8,461.6 Z" id="St-one"></path>
        </g>
    </g>
</svg>